<svg width="1584" height="396" viewBox="0 0 1584 396" fill="none" xmlns="http://www.w3.org/2000/svg">
<rect width="1584" height="396" fill="white"/>
<path d="M705.112 184.575H689.341V245.007H680.648V184.575H671.21V177.254H680.648V172.539C680.648 165.176 682.511 159.757 686.236 156.283C690.045 152.808 696.171 151.071 704.616 151.071V158.516C698.986 158.516 695.012 159.592 692.694 161.743C690.459 163.894 689.341 167.492 689.341 172.539V177.254H705.112V184.575Z" fill="black"/>
<path d="M751.085 176.013C756.218 176.013 760.813 177.089 764.869 179.24C769.009 181.39 772.238 184.699 774.556 189.167C776.957 193.551 778.157 198.928 778.157 205.298V245.007H769.588V206.291C769.588 198.928 767.726 193.303 764 189.415C760.357 185.527 755.349 183.583 748.974 183.583C742.433 183.583 737.218 185.651 733.327 189.787C729.435 193.924 727.49 200.004 727.49 208.028V245.007H718.797V153.181H727.49V188.794C729.642 184.741 732.788 181.597 736.928 179.364C741.15 177.13 745.869 176.013 751.085 176.013Z" fill="black"/>
<path d="M793.409 211.007C793.409 204.058 794.816 197.977 797.631 192.765C800.446 187.471 804.295 183.417 809.18 180.605C814.147 177.709 819.736 176.261 825.945 176.261C831.906 176.261 837.287 177.709 842.089 180.605C846.891 183.5 850.409 187.264 852.645 191.897V153.181H861.338V245.007H852.645V229.868C850.575 234.584 847.181 238.472 842.462 241.533C837.743 244.511 832.196 246 825.821 246C819.612 246 814.023 244.552 809.056 241.657C804.171 238.761 800.322 234.666 797.507 229.372C794.775 224.077 793.409 217.956 793.409 211.007ZM852.645 211.131C852.645 205.671 851.527 200.873 849.292 196.736C847.056 192.6 843.993 189.415 840.102 187.181C836.294 184.948 832.071 183.831 827.435 183.831C822.633 183.831 818.328 184.906 814.52 187.057C810.712 189.208 807.69 192.352 805.455 196.488C803.302 200.542 802.226 205.381 802.226 211.007C802.226 216.549 803.302 221.43 805.455 225.649C807.69 229.786 810.712 232.971 814.52 235.204C818.328 237.355 822.633 238.431 827.435 238.431C832.071 238.431 836.294 237.314 840.102 235.08C843.993 232.846 847.056 229.661 849.292 225.525C851.527 221.389 852.645 216.591 852.645 211.131Z" fill="black"/>
<path d="M882.673 245.628C880.852 245.628 879.32 245.007 878.078 243.766C876.919 242.525 876.34 240.995 876.34 239.175C876.34 237.355 876.919 235.866 878.078 234.708C879.32 233.467 880.852 232.846 882.673 232.846C884.412 232.846 885.861 233.467 887.02 234.708C888.261 235.866 888.882 237.355 888.882 239.175C888.882 240.995 888.261 242.525 887.02 243.766C885.861 245.007 884.412 245.628 882.673 245.628Z" fill="black"/>
<path d="M927.087 246C919.304 246 912.93 244.221 907.962 240.664C903.078 237.024 900.345 232.102 899.766 225.897H908.707C909.121 229.703 910.901 232.805 914.047 235.204C917.276 237.521 921.581 238.679 926.962 238.679C931.681 238.679 935.366 237.562 938.015 235.328C940.747 233.095 942.113 230.323 942.113 227.014C942.113 224.698 941.368 222.795 939.878 221.306C938.387 219.817 936.483 218.659 934.165 217.832C931.93 216.922 928.867 215.97 924.975 214.977C919.925 213.654 915.827 212.33 912.681 211.007C909.535 209.683 906.844 207.739 904.609 205.174C902.457 202.527 901.38 199.011 901.38 194.627C901.38 191.318 902.374 188.257 904.361 185.444C906.348 182.631 909.163 180.398 912.805 178.743C916.448 177.089 920.588 176.261 925.224 176.261C932.509 176.261 938.387 178.123 942.858 181.845C947.329 185.485 949.73 190.532 950.061 196.984H941.368C941.119 193.014 939.546 189.829 936.649 187.429C933.834 184.948 929.943 183.707 924.975 183.707C920.588 183.707 917.028 184.741 914.296 186.809C911.564 188.877 910.197 191.442 910.197 194.503C910.197 197.15 910.984 199.342 912.557 201.079C914.213 202.734 916.241 204.058 918.642 205.05C921.043 205.96 924.272 206.994 928.328 208.153C933.213 209.476 937.104 210.758 940.002 211.999C942.899 213.24 945.383 215.06 947.453 217.459C949.523 219.858 950.599 223.043 950.682 227.014C950.682 230.654 949.688 233.922 947.701 236.817C945.714 239.63 942.941 241.864 939.381 243.518C935.821 245.173 931.723 246 927.087 246Z" fill="black"/>
<path d="M963.071 211.007C963.071 204.058 964.437 197.977 967.169 192.765C969.984 187.471 973.834 183.417 978.718 180.605C983.686 177.709 989.274 176.261 995.483 176.261C1001.94 176.261 1007.49 177.75 1012.12 180.729C1016.84 183.707 1020.24 187.512 1022.31 192.145V177.254H1031V245.007H1022.31V229.992C1020.15 234.625 1016.72 238.472 1012 241.533C1007.36 244.511 1001.82 246 995.359 246C989.233 246 983.686 244.552 978.718 241.657C973.834 238.761 969.984 234.666 967.169 229.372C964.437 224.077 963.071 217.956 963.071 211.007ZM1022.31 211.131C1022.31 205.671 1021.19 200.873 1018.95 196.736C1016.72 192.6 1013.66 189.415 1009.76 187.181C1005.96 184.948 1001.73 183.831 997.098 183.831C992.296 183.831 987.991 184.906 984.182 187.057C980.374 189.208 977.352 192.352 975.117 196.488C972.964 200.542 971.888 205.381 971.888 211.007C971.888 216.549 972.964 221.43 975.117 225.649C977.352 229.786 980.374 232.971 984.182 235.204C987.991 237.355 992.296 238.431 997.098 238.431C1001.73 238.431 1005.96 237.314 1009.76 235.08C1013.66 232.846 1016.72 229.661 1018.95 225.525C1021.19 221.389 1022.31 216.591 1022.31 211.131Z" fill="black"/>
<path fill-rule="evenodd" clip-rule="evenodd" d="M601.94 150C628.417 150 649.88 171.49 649.88 198C649.88 224.509 628.417 245.999 601.94 245.999C575.464 245.999 554 224.509 554 198C554 171.49 575.464 150 601.94 150ZM600.742 219.848C594.841 219.898 589.204 221.04 584.019 223.087C584.922 225.916 585.967 228.526 587.137 230.868C591.025 238.653 595.905 242.903 600.742 243.51V219.848ZM603.139 243.51C607.975 242.903 612.855 238.653 616.744 230.868C617.833 228.687 618.81 226.274 619.67 223.668C614.565 221.459 608.993 220.131 603.139 219.885V243.51ZM581.8 224.024C577.755 225.869 574.019 228.274 570.69 231.14C576.844 236.959 584.616 241.071 593.265 242.741C588.531 239.055 584.521 232.453 581.8 224.024ZM621.865 224.685C619.15 232.801 615.222 239.152 610.611 242.741C618.899 241.142 626.382 237.301 632.408 231.862C629.252 229.016 625.71 226.593 621.865 224.685ZM625.896 199.2C625.793 207.646 624.598 215.548 622.586 222.37C626.82 224.429 630.713 227.074 634.159 230.207C642.119 222.225 647.138 211.302 647.451 199.2H625.896ZM556.43 199.2C556.732 210.923 561.459 221.534 568.991 229.443C572.605 226.308 576.68 223.694 581.102 221.713C579.206 215.043 578.084 207.376 577.984 199.2H556.43ZM603.139 217.481C609.239 217.725 615.049 219.093 620.381 221.367C622.263 214.866 623.397 207.313 623.499 199.2H603.139V217.481ZM580.381 199.2C580.48 207.07 581.549 214.414 583.331 220.781C588.736 218.674 594.604 217.497 600.742 217.448V199.2H580.381ZM568.607 166.945C561.295 174.812 556.727 185.272 556.43 196.8H577.984C578.08 189.007 579.093 181.674 580.831 175.228C576.338 173.085 572.22 170.287 568.607 166.945ZM583.054 176.222C581.436 182.352 580.475 189.339 580.381 196.8H600.742V179.967C594.485 179.818 588.522 178.503 583.054 176.222ZM620.821 176.217C615.355 178.498 609.393 179.816 603.139 179.967V196.8H623.499C623.405 189.337 622.44 182.349 620.821 176.217ZM635.264 166.945C631.652 170.286 627.532 173.08 623.04 175.223C624.779 181.67 625.801 189.004 625.896 196.8H647.451C647.153 185.27 642.579 174.813 635.264 166.945ZM600.742 152.484C595.905 153.091 591.025 157.346 587.137 165.131C585.833 167.743 584.679 170.686 583.71 173.897C588.966 176.128 594.71 177.416 600.742 177.567V152.484ZM603.139 177.567C609.17 177.414 614.911 176.119 620.166 173.887C619.197 170.68 618.046 167.74 616.744 165.131C612.855 157.346 607.975 153.091 603.139 152.484V177.567ZM593.27 153.248C584.431 154.954 576.509 159.212 570.292 165.234C573.62 168.301 577.394 170.885 581.505 172.889C584.229 164.019 588.362 157.066 593.27 153.248ZM610.606 153.248C615.515 157.065 619.641 164.018 622.366 172.889C626.477 170.885 630.251 168.301 633.579 165.234C627.362 159.214 619.444 154.953 610.606 153.248Z" fill="black"/>
</svg>
