<svg width="1500" height="500" viewBox="0 0 1500 500" fill="none" xmlns="http://www.w3.org/2000/svg">
<rect width="1500" height="500" fill="white"/>
<rect y="20" width="1500" height="5" fill="#0FA0AD" fill-opacity="0.05"/>
<rect y="70" width="1500" height="5" fill="#0FA0AD" fill-opacity="0.05"/>
<rect y="390" width="1500" height="5" fill="#0FA0AD" fill-opacity="0.05"/>
<rect y="450" width="1500" height="5" fill="#0FA0AD" fill-opacity="0.05"/>
<rect y="120" width="1500" height="5" fill="#0FA0AD" fill-opacity="0.05"/>
<rect x="170" width="5" height="500" fill="#0FA0AD" fill-opacity="0.05"/>
<rect x="220" width="5" height="500" fill="#0FA0AD" fill-opacity="0.05"/>
<rect x="270" width="5" height="500" fill="#0FA0AD" fill-opacity="0.05"/>
<rect x="1270" width="5" height="500" fill="#0FA0AD" fill-opacity="0.05"/>
<rect x="1320" width="5" height="500" fill="#0FA0AD" fill-opacity="0.05"/>
<rect x="1220" width="5" height="500" fill="#0FA0AD" fill-opacity="0.05"/>
<path d="M409.938 234.438V242H391.031V234.438H409.938ZM393.844 196.5V242H384.688V196.5H393.844ZM441.406 234.438V242H421.625V234.438H441.406ZM424.469 196.5V242H415.312V196.5H424.469ZM438.75 214.938V222.281H421.625V214.938H438.75ZM441.344 196.5V204.094H421.625V196.5H441.344ZM465.5 196.5V242H456.406V196.5H465.5ZM476.812 196.5V204.094H445.312V196.5H476.812ZM515.75 230.031C515.75 229.219 515.677 228.479 515.531 227.812C515.385 227.146 515.073 226.531 514.594 225.969C514.135 225.406 513.458 224.844 512.562 224.281C511.688 223.719 510.542 223.135 509.125 222.531C507.438 221.823 505.802 221.073 504.219 220.281C502.635 219.469 501.208 218.531 499.938 217.469C498.667 216.406 497.656 215.156 496.906 213.719C496.177 212.26 495.812 210.552 495.812 208.594C495.812 206.677 496.156 204.938 496.844 203.375C497.552 201.812 498.552 200.479 499.844 199.375C501.135 198.25 502.646 197.385 504.375 196.781C506.125 196.177 508.073 195.875 510.219 195.875C513.135 195.875 515.656 196.479 517.781 197.688C519.927 198.896 521.583 200.552 522.75 202.656C523.938 204.76 524.531 207.177 524.531 209.906H515.406C515.406 208.615 515.219 207.479 514.844 206.5C514.49 205.5 513.917 204.719 513.125 204.156C512.333 203.594 511.312 203.312 510.062 203.312C508.896 203.312 507.927 203.552 507.156 204.031C506.406 204.49 505.844 205.125 505.469 205.938C505.115 206.729 504.938 207.625 504.938 208.625C504.938 209.375 505.115 210.052 505.469 210.656C505.844 211.24 506.354 211.771 507 212.25C507.646 212.708 508.406 213.156 509.281 213.594C510.177 214.031 511.156 214.458 512.219 214.875C514.281 215.688 516.104 216.583 517.688 217.562C519.271 218.521 520.594 219.604 521.656 220.812C522.719 222 523.521 223.344 524.062 224.844C524.604 226.344 524.875 228.052 524.875 229.969C524.875 231.865 524.542 233.594 523.875 235.156C523.229 236.698 522.281 238.031 521.031 239.156C519.781 240.26 518.271 241.115 516.5 241.719C514.75 242.323 512.792 242.625 510.625 242.625C508.521 242.625 506.531 242.333 504.656 241.75C502.781 241.146 501.125 240.24 499.688 239.031C498.271 237.802 497.156 236.25 496.344 234.375C495.531 232.479 495.125 230.24 495.125 227.656H504.281C504.281 229.031 504.417 230.208 504.688 231.188C504.958 232.146 505.375 232.917 505.938 233.5C506.5 234.062 507.188 234.49 508 234.781C508.833 235.052 509.781 235.188 510.844 235.188C512.052 235.188 513.01 234.958 513.719 234.5C514.448 234.042 514.969 233.427 515.281 232.656C515.594 231.885 515.75 231.01 515.75 230.031ZM562.062 196.5V242H552.969V196.5H562.062ZM573.375 196.5V204.094H541.875V196.5H573.375ZM591.406 204.625L581.625 242H571.969L586.188 196.5H592.219L591.406 204.625ZM599.125 242L589.281 204.625L588.375 196.5H594.5L608.844 242H599.125ZM599.469 225.031V232.625H578.938V225.031H599.469ZM638.438 234.438V242H619.531V234.438H638.438ZM622.344 196.5V242H613.188V196.5H622.344ZM652.969 196.5V242H643.812V196.5H652.969ZM675.562 196.5L660.812 219.094L651.781 230.344L650.031 221.188L655.875 211.438L664.438 196.5H675.562ZM665 242L655.062 221.094L661.781 215.156L675.781 242H665ZM709.5 225.969H700.188V218.375H709.5C710.792 218.375 711.844 218.083 712.656 217.5C713.49 216.917 714.094 216.115 714.469 215.094C714.844 214.052 715.031 212.885 715.031 211.594C715.031 210.281 714.833 209.062 714.438 207.938C714.062 206.792 713.469 205.865 712.656 205.156C711.865 204.448 710.812 204.094 709.5 204.094H703.125V242H694V196.5H709.5C712.562 196.5 715.198 197.146 717.406 198.438C719.615 199.729 721.302 201.51 722.469 203.781C723.656 206.031 724.25 208.615 724.25 211.531C724.25 214.469 723.656 217.021 722.469 219.188C721.302 221.333 719.615 223 717.406 224.188C715.198 225.375 712.562 225.969 709.5 225.969ZM730.406 196.5H745C748.042 196.5 750.635 197.021 752.781 198.062C754.927 199.104 756.573 200.646 757.719 202.688C758.865 204.729 759.438 207.25 759.438 210.25C759.438 212.708 759.104 214.812 758.438 216.562C757.771 218.292 756.823 219.74 755.594 220.906C754.365 222.052 752.896 222.969 751.188 223.656L748.406 225.312H736.562L736.531 217.719H744.75C746 217.719 747.031 217.448 747.844 216.906C748.677 216.344 749.292 215.562 749.688 214.562C750.104 213.542 750.312 212.354 750.312 211C750.312 209.562 750.125 208.333 749.75 207.312C749.396 206.271 748.823 205.479 748.031 204.938C747.26 204.375 746.25 204.094 745 204.094H739.562V242H730.406V196.5ZM751.062 242L742.719 221.719L752.312 221.688L760.844 241.562V242H751.062ZM797.781 215.719V223.312C797.781 226.521 797.385 229.333 796.594 231.75C795.823 234.146 794.719 236.156 793.281 237.781C791.865 239.385 790.146 240.594 788.125 241.406C786.125 242.219 783.906 242.625 781.469 242.625C779.031 242.625 776.802 242.219 774.781 241.406C772.781 240.594 771.052 239.385 769.594 237.781C768.156 236.156 767.042 234.146 766.25 231.75C765.458 229.333 765.062 226.521 765.062 223.312V215.719C765.062 212.427 765.448 209.552 766.219 207.094C766.99 204.615 768.104 202.552 769.562 200.906C771.021 199.24 772.75 197.99 774.75 197.156C776.75 196.302 778.969 195.875 781.406 195.875C783.844 195.875 786.062 196.302 788.062 197.156C790.062 197.99 791.792 199.24 793.25 200.906C794.708 202.552 795.823 204.615 796.594 207.094C797.385 209.552 797.781 212.427 797.781 215.719ZM788.688 223.312V215.656C788.688 213.49 788.531 211.646 788.219 210.125C787.906 208.583 787.438 207.323 786.812 206.344C786.188 205.365 785.427 204.646 784.531 204.188C783.635 203.729 782.594 203.5 781.406 203.5C780.219 203.5 779.167 203.729 778.25 204.188C777.354 204.646 776.594 205.365 775.969 206.344C775.365 207.323 774.906 208.583 774.594 210.125C774.302 211.646 774.156 213.49 774.156 215.656V223.312C774.156 225.396 774.312 227.177 774.625 228.656C774.938 230.135 775.406 231.344 776.031 232.281C776.656 233.219 777.417 233.917 778.312 234.375C779.229 234.812 780.281 235.031 781.469 235.031C782.635 235.031 783.667 234.812 784.562 234.375C785.479 233.917 786.24 233.219 786.844 232.281C787.448 231.344 787.906 230.135 788.219 228.656C788.531 227.177 788.688 225.396 788.688 223.312ZM835.344 218.094V236.844C834.698 237.531 833.75 238.333 832.5 239.25C831.271 240.146 829.656 240.938 827.656 241.625C825.677 242.292 823.26 242.625 820.406 242.625C817.885 242.625 815.594 242.229 813.531 241.438C811.49 240.646 809.729 239.448 808.25 237.844C806.792 236.219 805.677 234.198 804.906 231.781C804.135 229.344 803.75 226.458 803.75 223.125V215.375C803.75 212.083 804.115 209.219 804.844 206.781C805.594 204.323 806.677 202.281 808.094 200.656C809.51 199.031 811.198 197.823 813.156 197.031C815.135 196.24 817.365 195.844 819.844 195.844C823.26 195.844 826.062 196.417 828.25 197.562C830.458 198.708 832.125 200.406 833.25 202.656C834.396 204.906 835.083 207.667 835.312 210.938H826.469C826.323 209.021 826 207.521 825.5 206.438C825.021 205.354 824.344 204.583 823.469 204.125C822.594 203.646 821.458 203.406 820.062 203.406C818.854 203.406 817.802 203.625 816.906 204.062C816.01 204.479 815.26 205.167 814.656 206.125C814.052 207.083 813.604 208.312 813.312 209.812C813.021 211.312 812.875 213.146 812.875 215.312V223.125C812.875 225.271 813.042 227.104 813.375 228.625C813.708 230.146 814.198 231.385 814.844 232.344C815.51 233.302 816.344 234 817.344 234.438C818.365 234.854 819.562 235.062 820.938 235.062C822.042 235.062 822.927 234.948 823.594 234.719C824.26 234.49 824.792 234.25 825.188 234C825.604 233.729 825.948 233.521 826.219 233.375V225H819.688V218.094H835.344ZM841.969 196.5H856.562C859.604 196.5 862.198 197.021 864.344 198.062C866.49 199.104 868.135 200.646 869.281 202.688C870.427 204.729 871 207.25 871 210.25C871 212.708 870.667 214.812 870 216.562C869.333 218.292 868.385 219.74 867.156 220.906C865.927 222.052 864.458 222.969 862.75 223.656L859.969 225.312H848.125L848.094 217.719H856.312C857.562 217.719 858.594 217.448 859.406 216.906C860.24 216.344 860.854 215.562 861.25 214.562C861.667 213.542 861.875 212.354 861.875 211C861.875 209.562 861.688 208.333 861.312 207.312C860.958 206.271 860.385 205.479 859.594 204.938C858.823 204.375 857.812 204.094 856.562 204.094H851.125V242H841.969V196.5ZM862.625 242L854.281 221.719L863.875 221.688L872.406 241.562V242H862.625ZM893.844 204.625L884.062 242H874.406L888.625 196.5H894.656L893.844 204.625ZM901.562 242L891.719 204.625L890.812 196.5H896.938L911.281 242H901.562ZM901.906 225.031V232.625H881.375V225.031H901.906ZM918.875 196.5H926.906L936.188 227.625L945.438 196.5H952.531L939.594 242H932.75L918.875 196.5ZM915.625 196.5H923.281L924.469 226.5V242H915.625V196.5ZM949.031 196.5H956.719V242H947.906V226.5L949.031 196.5ZM967.438 196.5H975.469L984.75 227.625L994 196.5H1001.09L988.156 242H981.312L967.438 196.5ZM964.188 196.5H971.844L973.031 226.5V242H964.188V196.5ZM997.594 196.5H1005.28V242H996.469V226.5L997.594 196.5ZM1022.25 196.5V242H1013.16V196.5H1022.25ZM1061.88 196.5V242H1053.03L1038.75 213.531V242H1030.06V196.5H1038.78L1053.19 225.281V196.5H1061.88ZM1100.16 218.094V236.844C1099.51 237.531 1098.56 238.333 1097.31 239.25C1096.08 240.146 1094.47 240.938 1092.47 241.625C1090.49 242.292 1088.07 242.625 1085.22 242.625C1082.7 242.625 1080.41 242.229 1078.34 241.438C1076.3 240.646 1074.54 239.448 1073.06 237.844C1071.6 236.219 1070.49 234.198 1069.72 231.781C1068.95 229.344 1068.56 226.458 1068.56 223.125V215.375C1068.56 212.083 1068.93 209.219 1069.66 206.781C1070.41 204.323 1071.49 202.281 1072.91 200.656C1074.32 199.031 1076.01 197.823 1077.97 197.031C1079.95 196.24 1082.18 195.844 1084.66 195.844C1088.07 195.844 1090.88 196.417 1093.06 197.562C1095.27 198.708 1096.94 200.406 1098.06 202.656C1099.21 204.906 1099.9 207.667 1100.12 210.938H1091.28C1091.14 209.021 1090.81 207.521 1090.31 206.438C1089.83 205.354 1089.16 204.583 1088.28 204.125C1087.41 203.646 1086.27 203.406 1084.88 203.406C1083.67 203.406 1082.61 203.625 1081.72 204.062C1080.82 204.479 1080.07 205.167 1079.47 206.125C1078.86 207.083 1078.42 208.312 1078.12 209.812C1077.83 211.312 1077.69 213.146 1077.69 215.312V223.125C1077.69 225.271 1077.85 227.104 1078.19 228.625C1078.52 230.146 1079.01 231.385 1079.66 232.344C1080.32 233.302 1081.16 234 1082.16 234.438C1083.18 234.854 1084.38 235.062 1085.75 235.062C1086.85 235.062 1087.74 234.948 1088.41 234.719C1089.07 234.49 1089.6 234.25 1090 234C1090.42 233.729 1090.76 233.521 1091.03 233.375V225H1084.5V218.094H1100.16Z" fill="#0C0C0C"/>
<path d="M489.75 194V198.812C489.75 200.167 489.51 201.573 489.031 203.031C488.573 204.469 487.948 205.833 487.156 207.125C486.365 208.417 485.49 209.521 484.531 210.438L480.531 207.969C481.135 206.719 481.667 205.375 482.125 203.938C482.604 202.479 482.844 200.781 482.844 198.844V194H489.75ZM1116.28 196.5L1115.28 228H1108L1106.94 196.5H1116.28ZM1106.81 237.719C1106.81 236.385 1107.25 235.26 1108.12 234.344C1109 233.406 1110.16 232.938 1111.59 232.938C1113.07 232.938 1114.24 233.406 1115.09 234.344C1115.97 235.26 1116.41 236.385 1116.41 237.719C1116.41 239.073 1115.97 240.219 1115.09 241.156C1114.24 242.073 1113.07 242.531 1111.59 242.531C1110.16 242.531 1109 242.073 1108.12 241.156C1107.25 240.219 1106.81 239.073 1106.81 237.719Z" fill="#0FA0AD"/>
<path d="M770.332 290.562L758.477 321.441H755.371L767.246 290.562H770.332ZM800.801 319H795.137V295.992C795.137 294.391 795.449 293.043 796.074 291.949C796.712 290.842 797.604 290.009 798.75 289.449C799.909 288.876 801.283 288.59 802.871 288.59C803.392 288.59 803.893 288.629 804.375 288.707C804.857 288.772 805.326 288.857 805.781 288.961L805.723 293.199C805.475 293.134 805.215 293.089 804.941 293.062C804.668 293.036 804.349 293.023 803.984 293.023C803.307 293.023 802.728 293.141 802.246 293.375C801.777 293.596 801.419 293.928 801.172 294.371C800.924 294.814 800.801 295.354 800.801 295.992V319ZM805.02 297.867V301.852H791.992V297.867H805.02ZM813.457 289V319H807.832V289H813.457ZM812.656 307.691H811.113C811.126 306.22 811.322 304.866 811.699 303.629C812.077 302.379 812.617 301.298 813.32 300.387C814.023 299.462 814.863 298.746 815.84 298.238C816.829 297.73 817.923 297.477 819.121 297.477C820.163 297.477 821.107 297.626 821.953 297.926C822.812 298.212 823.548 298.681 824.16 299.332C824.785 299.97 825.267 300.81 825.605 301.852C825.944 302.893 826.113 304.156 826.113 305.641V319H820.449V305.602C820.449 304.664 820.312 303.928 820.039 303.395C819.779 302.848 819.395 302.464 818.887 302.242C818.392 302.008 817.78 301.891 817.051 301.891C816.243 301.891 815.553 302.04 814.98 302.34C814.421 302.639 813.971 303.056 813.633 303.59C813.294 304.111 813.047 304.723 812.891 305.426C812.734 306.129 812.656 306.884 812.656 307.691ZM842.871 314.391V289H848.535V319H843.438L842.871 314.391ZM829.512 308.688V308.277C829.512 306.663 829.694 305.198 830.059 303.883C830.423 302.555 830.957 301.415 831.66 300.465C832.363 299.514 833.229 298.779 834.258 298.258C835.286 297.737 836.458 297.477 837.773 297.477C839.01 297.477 840.091 297.737 841.016 298.258C841.953 298.779 842.747 299.521 843.398 300.484C844.062 301.435 844.596 302.561 845 303.863C845.404 305.152 845.697 306.565 845.879 308.102V309C845.697 310.471 845.404 311.839 845 313.102C844.596 314.365 844.062 315.471 843.398 316.422C842.747 317.359 841.953 318.089 841.016 318.609C840.078 319.13 838.984 319.391 837.734 319.391C836.419 319.391 835.247 319.124 834.219 318.59C833.203 318.056 832.344 317.307 831.641 316.344C830.951 315.38 830.423 314.247 830.059 312.945C829.694 311.643 829.512 310.224 829.512 308.688ZM835.137 308.277V308.688C835.137 309.56 835.202 310.374 835.332 311.129C835.475 311.884 835.703 312.555 836.016 313.141C836.341 313.714 836.758 314.163 837.266 314.488C837.786 314.801 838.418 314.957 839.16 314.957C840.124 314.957 840.918 314.742 841.543 314.312C842.168 313.87 842.643 313.264 842.969 312.496C843.307 311.728 843.503 310.842 843.555 309.84V307.281C843.516 306.461 843.398 305.725 843.203 305.074C843.021 304.41 842.747 303.844 842.383 303.375C842.031 302.906 841.589 302.542 841.055 302.281C840.534 302.021 839.915 301.891 839.199 301.891C838.47 301.891 837.845 302.06 837.324 302.398C836.803 302.724 836.38 303.173 836.055 303.746C835.742 304.319 835.508 304.996 835.352 305.777C835.208 306.546 835.137 307.379 835.137 308.277ZM865.41 314.391V289H871.074V319H865.977L865.41 314.391ZM852.051 308.688V308.277C852.051 306.663 852.233 305.198 852.598 303.883C852.962 302.555 853.496 301.415 854.199 300.465C854.902 299.514 855.768 298.779 856.797 298.258C857.826 297.737 858.997 297.477 860.312 297.477C861.549 297.477 862.63 297.737 863.555 298.258C864.492 298.779 865.286 299.521 865.938 300.484C866.602 301.435 867.135 302.561 867.539 303.863C867.943 305.152 868.236 306.565 868.418 308.102V309C868.236 310.471 867.943 311.839 867.539 313.102C867.135 314.365 866.602 315.471 865.938 316.422C865.286 317.359 864.492 318.089 863.555 318.609C862.617 319.13 861.523 319.391 860.273 319.391C858.958 319.391 857.786 319.124 856.758 318.59C855.742 318.056 854.883 317.307 854.18 316.344C853.49 315.38 852.962 314.247 852.598 312.945C852.233 311.643 852.051 310.224 852.051 308.688ZM857.676 308.277V308.688C857.676 309.56 857.741 310.374 857.871 311.129C858.014 311.884 858.242 312.555 858.555 313.141C858.88 313.714 859.297 314.163 859.805 314.488C860.326 314.801 860.957 314.957 861.699 314.957C862.663 314.957 863.457 314.742 864.082 314.312C864.707 313.87 865.182 313.264 865.508 312.496C865.846 311.728 866.042 310.842 866.094 309.84V307.281C866.055 306.461 865.938 305.725 865.742 305.074C865.56 304.41 865.286 303.844 864.922 303.375C864.57 302.906 864.128 302.542 863.594 302.281C863.073 302.021 862.454 301.891 861.738 301.891C861.009 301.891 860.384 302.06 859.863 302.398C859.342 302.724 858.919 303.173 858.594 303.746C858.281 304.319 858.047 304.996 857.891 305.777C857.747 306.546 857.676 307.379 857.676 308.277ZM885.195 319.391C883.555 319.391 882.083 319.13 880.781 318.609C879.479 318.076 878.372 317.34 877.461 316.402C876.562 315.465 875.872 314.378 875.391 313.141C874.909 311.891 874.668 310.562 874.668 309.156V308.375C874.668 306.773 874.896 305.309 875.352 303.98C875.807 302.652 876.458 301.5 877.305 300.523C878.164 299.547 879.206 298.798 880.43 298.277C881.654 297.743 883.034 297.477 884.57 297.477C886.068 297.477 887.396 297.724 888.555 298.219C889.714 298.714 890.684 299.417 891.465 300.328C892.259 301.24 892.858 302.333 893.262 303.609C893.665 304.872 893.867 306.279 893.867 307.828V310.172H877.07V306.422H888.34V305.992C888.34 305.211 888.197 304.514 887.91 303.902C887.637 303.277 887.22 302.783 886.66 302.418C886.1 302.053 885.384 301.871 884.512 301.871C883.77 301.871 883.132 302.034 882.598 302.359C882.064 302.685 881.628 303.141 881.289 303.727C880.964 304.312 880.716 305.003 880.547 305.797C880.391 306.578 880.312 307.438 880.312 308.375V309.156C880.312 310.003 880.43 310.784 880.664 311.5C880.911 312.216 881.257 312.835 881.699 313.355C882.155 313.876 882.702 314.28 883.34 314.566C883.991 314.853 884.727 314.996 885.547 314.996C886.562 314.996 887.507 314.801 888.379 314.41C889.264 314.007 890.026 313.401 890.664 312.594L893.398 315.562C892.956 316.201 892.35 316.812 891.582 317.398C890.827 317.984 889.915 318.466 888.848 318.844C887.78 319.208 886.562 319.391 885.195 319.391ZM903.984 314.898L908.672 297.867H914.551L907.422 319H903.867L903.984 314.898ZM900.762 297.867L905.469 314.918L905.566 319H901.992L894.863 297.867H900.762Z" fill="#0C0C0C"/>
<path fill-rule="evenodd" clip-rule="evenodd" d="M718.899 290.004C710.656 290.004 703.977 296.718 703.977 305.004C703.977 311.63 708.251 317.255 714.182 319.238C714.93 319.375 715.202 318.916 715.202 318.515C715.202 318.159 715.188 317.216 715.183 315.966C711.03 316.87 710.155 313.955 710.155 313.955C709.475 312.221 708.499 311.757 708.499 311.757C707.144 310.83 708.601 310.849 708.601 310.849C710.097 310.957 710.884 312.392 710.884 312.392C712.215 314.687 714.377 314.023 715.227 313.642C715.363 312.67 715.751 312.011 716.174 311.635C712.861 311.259 709.378 309.97 709.378 304.223C709.378 302.583 709.961 301.245 710.913 300.195C710.763 299.819 710.248 298.291 711.059 296.225C711.059 296.225 712.312 295.825 715.163 297.763C716.354 297.431 717.631 297.265 718.899 297.26C720.167 297.265 721.444 297.431 722.634 297.763C725.486 295.825 726.734 296.225 726.734 296.225C727.55 298.291 727.04 299.819 726.885 300.195C727.842 301.245 728.415 302.583 728.415 304.223C728.415 309.985 724.927 311.25 721.605 311.625C722.139 312.084 722.615 313.002 722.615 314.399C722.615 316.406 722.6 318.022 722.6 318.515C722.6 318.916 722.868 319.384 723.625 319.238C729.552 317.25 733.821 311.63 733.821 305.004C733.821 296.718 727.142 290.004 718.899 290.004Z" fill="#0C0C0C"/>
<path d="M621.627 288.205H596.159C593.962 288.205 592.18 289.997 592.18 292.205V317.805C592.18 320.013 593.962 321.805 596.159 321.805H621.627C623.823 321.805 625.606 320.013 625.606 317.805V292.205C625.606 289.997 623.823 288.205 621.627 288.205ZM602.526 301.005V316.205H597.751V301.005H602.526ZM597.751 296.581C597.751 295.461 598.706 294.605 600.138 294.605C601.571 294.605 602.47 295.461 602.526 296.581C602.526 297.701 601.635 298.605 600.138 298.605C598.706 298.605 597.751 297.701 597.751 296.581ZM620.035 316.205H615.26C615.26 316.205 615.26 308.797 615.26 308.205C615.26 306.605 614.464 305.005 612.474 304.973H612.41C610.484 304.973 609.689 306.621 609.689 308.205C609.689 308.933 609.689 316.205 609.689 316.205H604.913V301.005H609.689V303.053C609.689 303.053 611.225 301.005 614.313 301.005C617.472 301.005 620.035 303.189 620.035 307.613V316.205Z" fill="#0C0C0C"/>
<path d="M678.98 319.671L667.314 302.575L667.334 302.591L677.852 290.338H674.337L665.769 300.311L658.964 290.338H649.745L660.637 306.299L660.635 306.298L649.148 319.671H652.663L662.19 308.575L669.761 319.671H678.98ZM657.571 293.005L673.939 317.005H671.154L654.773 293.005H657.571Z" fill="#0C0C0C"/>
<path d="M791.5 336.001C791.5 336.001 814.5 343.501 815.5 336.001C816.5 328.501 842 336.001 842 336.001C842 336.001 854 346.001 867.5 336.001C881 326.001 887 348.001 892.5 336.001C898 324.001 912 336.001 912 336.001" stroke="#0FA0AD" stroke-width="5" stroke-linecap="round"/>
</svg>
